<svg width="502" height="428" viewBox="0 0 502 428" fill="none" xmlns="http://www.w3.org/2000/svg">
<path d="M70 -8.58307e-06C81.4 -8.58307e-06 90.4 3.17999 97 9.54C103.6 15.78 106.9 24.3 106.9 35.1C106.9 37.86 106.78 39.96 106.54 41.4C105.58 49.44 102.88 56.52 98.44 62.64C94.12 68.76 88.48 73.5 81.52 76.86C74.68 80.22 67 81.9 58.48 81.9H40.12C39.52 81.9 39.1 82.26 38.86 82.98L34 123.3C33.88 124.14 33.52 124.8 32.92 125.28C32.44 125.76 31.78 126 30.94 126H3.4C2.56 126 1.9 125.76 1.42 125.28C1.06 124.8 0.94 124.14 1.06 123.3L16 2.69999C16.12 1.85999 16.42 1.19999 16.9 0.719993C17.38 0.239992 18.04 -8.58307e-06 18.88 -8.58307e-06H70ZM57.94 54.9C62.5 54.9 66.28 53.58 69.28 50.94C72.4 48.18 73.96 44.64 73.96 40.32C73.96 36.84 72.76 34.08 70.36 32.04C68.08 30 64.96 28.98 61 28.98H46.6C46 28.98 45.58 29.34 45.34 30.06L42.46 53.82C42.46 54.54 42.76 54.9 43.36 54.9H57.94ZM392.225 152.7C392.345 151.86 392.645 151.2 393.125 150.72C393.725 150.24 394.385 150 395.105 150H422.825C423.545 150 424.085 150.24 424.445 150.72C424.925 151.2 425.105 151.86 424.985 152.7L410.225 273.3C410.105 274.14 409.745 274.8 409.145 275.28C408.665 275.76 408.065 276 407.345 276H379.625C378.905 276 378.305 275.76 377.825 275.28C377.465 274.8 377.345 274.14 377.465 273.3L383.045 227.76C383.045 227.04 382.745 226.68 382.145 226.68H355.145C354.425 226.68 354.065 227.04 354.065 227.76L348.485 273.3C348.365 274.14 348.005 274.8 347.405 275.28C346.925 275.76 346.265 276 345.425 276H317.885C317.045 276 316.385 275.76 315.905 275.28C315.545 274.8 315.425 274.14 315.545 273.3L330.485 152.7C330.605 151.86 330.905 151.2 331.385 150.72C331.865 150.24 332.525 150 333.365 150H360.905C361.745 150 362.345 150.24 362.705 150.72C363.185 151.2 363.365 151.86 363.245 152.7L357.845 196.62C357.725 197.34 358.025 197.7 358.745 197.7H385.565C386.285 197.7 386.705 197.34 386.825 196.62L392.225 152.7Z" fill="#F06F12"/>
<path d="M187.726 126C186.046 126 185.146 125.22 185.026 123.66L183.046 109.8C182.926 109.2 182.566 108.9 181.966 108.9H145.426C144.946 108.9 144.526 109.2 144.166 109.8L138.586 123.66C138.106 125.22 137.026 126 135.346 126H105.646C103.606 126 102.946 124.98 103.666 122.94L155.326 2.16C155.926 0.719993 157.006 -8.58307e-06 158.566 -8.58307e-06H195.646C197.086 -8.58307e-06 197.986 0.719993 198.346 2.16L220.306 122.94V123.66C220.306 125.22 219.406 126 217.606 126H187.726ZM155.326 81.72C155.206 82.56 155.446 82.98 156.046 82.98H177.466C178.186 82.98 178.546 82.56 178.546 81.72L172.426 41.94C172.306 41.46 172.066 41.22 171.706 41.22C171.466 41.22 171.226 41.46 170.986 41.94L155.326 81.72ZM48.22 427.44C35.14 427.44 24.76 423.96 17.08 417C9.4 410.04 5.56 400.62 5.56 388.74C5.56 387.3 5.68 385.14 5.92 382.26L15.82 302.7C15.94 301.86 16.24 301.2 16.72 300.72C17.2 300.24 17.86 300 18.7 300H46.24C47.08 300 47.68 300.24 48.04 300.72C48.52 301.2 48.7 301.86 48.58 302.7L38.86 382.26C38.74 382.86 38.68 383.82 38.68 385.14C38.68 389.22 39.82 392.46 42.1 394.86C44.5 397.26 47.74 398.46 51.82 398.46C56.26 398.46 60.04 397.02 63.16 394.14C66.28 391.14 68.14 387.18 68.74 382.26L78.46 302.7C78.58 301.86 78.88 301.2 79.36 300.72C79.96 300.24 80.62 300 81.34 300H109.06C109.78 300 110.32 300.24 110.68 300.72C111.16 301.2 111.34 301.86 111.22 302.7L101.5 382.26C100.42 391.26 97.42 399.18 92.5 406.02C87.7 412.86 81.46 418.14 73.78 421.86C66.22 425.58 57.7 427.44 48.22 427.44Z" fill="#FF00F5"/>
<path d="M233.51 126C232.67 126 232.01 125.76 231.53 125.28C231.17 124.8 231.05 124.14 231.17 123.3L246.11 2.69999C246.23 1.85999 246.53 1.19999 247.01 0.719993C247.49 0.239992 248.15 -8.58307e-06 248.99 -8.58307e-06H276.53C277.37 -8.58307e-06 277.97 0.239992 278.33 0.719993C278.81 1.19999 278.99 1.85999 278.87 2.69999L264.11 123.3C263.99 124.14 263.63 124.8 263.03 125.28C262.55 125.76 261.89 126 261.05 126H233.51ZM154.898 427.44C141.218 427.44 130.418 424.32 122.498 418.08C114.698 411.72 110.798 403.14 110.798 392.34C110.798 391.26 110.918 389.52 111.158 387.12L111.518 384.6C111.638 383.76 111.938 383.1 112.418 382.62C113.018 382.14 113.678 381.9 114.398 381.9H141.578C142.418 381.9 143.018 382.14 143.378 382.62C143.858 383.1 144.038 383.76 143.918 384.6L143.738 385.68C143.378 389.04 144.698 392.04 147.698 394.68C150.818 397.2 155.258 398.46 161.018 398.46C165.698 398.46 169.058 397.38 171.098 395.22C173.138 393.06 174.158 390.84 174.158 388.56C174.158 386.16 173.018 384.36 170.738 383.16C168.578 381.96 164.738 380.52 159.218 378.84L154.358 377.22C144.158 373.98 135.578 369.72 128.618 364.44C121.778 359.04 118.358 351.36 118.358 341.4C118.358 333 120.578 325.56 125.018 319.08C129.578 312.6 135.698 307.56 143.378 303.96C151.178 300.36 159.698 298.56 168.938 298.56C177.338 298.56 184.838 300.06 191.438 303.06C198.158 306.06 203.378 310.38 207.098 316.02C210.818 321.54 212.678 327.9 212.678 335.1C212.678 336.18 212.558 337.92 212.318 340.32L212.138 341.94C212.018 342.78 211.658 343.44 211.058 343.92C210.578 344.4 209.918 344.64 209.078 344.64H182.078C181.238 344.64 180.578 344.4 180.098 343.92C179.738 343.44 179.618 342.78 179.738 341.94V341.76C180.098 339.48 179.678 337.26 178.478 335.1C177.398 332.94 175.598 331.14 173.078 329.7C170.678 328.26 167.678 327.54 164.078 327.54C160.118 327.54 156.938 328.44 154.538 330.24C152.138 331.92 150.938 334.26 150.938 337.26C150.938 340.02 152.498 342.36 155.618 344.28C158.858 346.08 164.918 348.48 173.798 351.48C174.758 351.84 178.418 353.1 184.778 355.26C191.258 357.3 196.658 360.84 200.978 365.88C205.298 370.8 207.458 376.8 207.458 383.88C207.458 384.84 207.338 386.4 207.098 388.56C205.538 400.68 200.018 410.22 190.538 417.18C181.058 424.02 169.178 427.44 154.898 427.44Z" fill="#FF0000"/>
<path d="M360.917 2.69999C361.037 1.85999 361.337 1.19999 361.817 0.719993C362.297 0.239992 362.957 -8.58307e-06 363.797 -8.58307e-06H391.337C392.177 -8.58307e-06 392.777 0.239992 393.137 0.719993C393.617 1.19999 393.797 1.85999 393.677 2.69999L378.917 123.3C378.797 124.14 378.437 124.8 377.837 125.28C377.357 125.76 376.697 126 375.857 126H349.577C348.137 126 347.177 125.4 346.697 124.2L318.617 63.36C318.377 62.88 318.137 62.7 317.897 62.82C317.657 62.94 317.477 63.24 317.357 63.72L310.517 123.3C310.397 124.14 310.037 124.8 309.437 125.28C308.957 125.76 308.297 126 307.457 126H279.917C279.077 126 278.417 125.76 277.937 125.28C277.577 124.8 277.457 124.14 277.577 123.3L292.517 2.69999C292.637 1.85999 292.937 1.19999 293.417 0.719993C293.897 0.239992 294.557 -8.58307e-06 295.397 -8.58307e-06H321.677C323.237 -8.58307e-06 324.257 0.599991 324.737 1.79999L352.457 62.64C352.697 63.12 352.937 63.3 353.177 63.18C353.417 63.06 353.597 62.76 353.717 62.28L360.917 2.69999ZM233.735 381.36C233.015 381.36 232.415 381.12 231.935 380.64C231.455 380.16 231.275 379.5 231.395 378.66L237.695 302.7C237.815 301.86 238.115 301.2 238.595 300.72C239.075 300.24 239.675 300 240.395 300H268.115C268.955 300 269.555 300.24 269.915 300.72C270.275 301.2 270.335 301.86 270.095 302.7L257.675 378.66C257.555 379.5 257.195 380.16 256.595 380.64C256.115 381.12 255.455 381.36 254.615 381.36H233.735ZM237.335 426C233.015 426 229.535 424.68 226.895 422.04C224.255 419.28 222.935 415.8 222.935 411.6C222.935 405.96 224.735 401.34 228.335 397.74C231.935 394.02 236.315 392.16 241.475 392.16C245.915 392.16 249.455 393.48 252.095 396.12C254.735 398.76 256.055 402.18 256.055 406.38C256.055 411.9 254.255 416.58 250.655 420.42C247.055 424.14 242.615 426 237.335 426Z" fill="#A812C0"/>
<path d="M498.922 -8.58307e-06C499.642 -8.58307e-06 500.182 0.239992 500.542 0.719993C501.022 1.19999 501.202 1.85999 501.082 2.69999L498.202 26.46C498.082 27.3 497.782 27.96 497.302 28.44C496.822 28.92 496.162 29.16 495.322 29.16H466.162C465.562 29.16 465.142 29.52 464.902 30.24L453.562 123.3C453.442 124.14 453.082 124.8 452.482 125.28C452.002 125.76 451.342 126 450.502 126H422.962C422.122 126 421.462 125.76 420.982 125.28C420.622 124.8 420.502 124.14 420.622 123.3L432.142 30.24C432.142 29.52 431.842 29.16 431.242 29.16H402.982C402.142 29.16 401.482 28.92 401.002 28.44C400.642 27.96 400.522 27.3 400.642 26.46L403.522 2.69999C403.642 1.85999 403.942 1.19999 404.422 0.719993C405.022 0.239992 405.742 -8.58307e-06 406.582 -8.58307e-06H498.922Z" fill="#2081E2"/>
<path d="M35.98 276C35.38 276 34.84 275.82 34.36 275.46C33.88 274.98 33.58 274.38 33.46 273.66L13.66 153.06V152.34C13.66 151.62 13.9 151.08 14.38 150.72C14.86 150.24 15.46 150 16.18 150H45.88C47.32 150 48.16 150.78 48.4 152.34L55.96 210.48C55.96 210.96 56.14 211.2 56.5 211.2C56.86 211.2 57.1 210.96 57.22 210.48L76.12 152.34C76.6 150.78 77.68 150 79.36 150H104.74C106.18 150 107.02 150.78 107.26 152.34L113.02 210.48C113.14 210.96 113.38 211.2 113.74 211.2C114.1 211.2 114.34 210.96 114.46 210.48L134.62 152.34C134.98 150.78 136 150 137.68 150H167.38C168.34 150 169 150.3 169.36 150.9C169.72 151.38 169.72 152.1 169.36 153.06L123.46 273.66C122.86 275.22 121.84 276 120.4 276H92.5C90.82 276 89.92 275.22 89.8 273.66L84.94 212.28C84.94 211.8 84.76 211.56 84.4 211.56C84.16 211.56 83.92 211.8 83.68 212.28L65.14 273.48C64.54 275.16 63.52 276 62.08 276H35.98Z" fill="#E8BB1C"/>
<path d="M167.592 276C166.752 276 166.092 275.76 165.612 275.28C165.252 274.8 165.132 274.14 165.252 273.3L180.192 152.7C180.312 151.86 180.612 151.2 181.092 150.72C181.572 150.24 182.232 150 183.072 150H210.612C211.452 150 212.052 150.24 212.412 150.72C212.892 151.2 213.072 151.86 212.952 152.7L198.192 273.3C198.072 274.14 197.712 274.8 197.112 275.28C196.632 275.76 195.972 276 195.132 276H167.592Z" fill="#15DDEA"/>
<path d="M318.219 150C318.939 150 319.479 150.24 319.839 150.72C320.319 151.2 320.499 151.86 320.379 152.7L317.499 176.46C317.379 177.3 317.079 177.96 316.599 178.44C316.119 178.92 315.459 179.16 314.619 179.16H285.459C284.859 179.16 284.439 179.52 284.199 180.24L272.859 273.3C272.739 274.14 272.379 274.8 271.779 275.28C271.299 275.76 270.639 276 269.799 276H242.259C241.419 276 240.759 275.76 240.279 275.28C239.919 274.8 239.799 274.14 239.919 273.3L251.439 180.24C251.439 179.52 251.139 179.16 250.539 179.16H222.279C221.439 179.16 220.779 178.92 220.299 178.44C219.939 177.96 219.819 177.3 219.939 176.46L222.819 152.7C222.939 151.86 223.239 151.2 223.719 150.72C224.319 150.24 225.039 150 225.879 150H318.219Z" fill="#2ED26C"/>
</svg>
