<svg width="554" height="554" viewBox="0 0 554 554" fill="none" xmlns="http://www.w3.org/2000/svg">
<path d="M499.28 0C513.707 0 526.331 4.78537 537.151 14.3561C547.972 23.9268 553.382 35.916 553.382 50.3236C553.382 63.2904 548.744 78.8299 539.47 96.9423C471.044 226.405 423.126 303.794 395.714 329.11C375.722 347.84 353.257 357.205 328.319 357.205C302.35 357.205 280.04 347.685 261.388 328.647C242.736 309.608 233.41 287.019 233.41 260.88C233.41 234.535 242.89 212.717 261.852 195.428L459.09 16.6716C471.25 5.5572 484.647 0 499.28 0ZM218.261 319.23C226.299 334.873 237.274 348.251 251.186 359.366C265.098 370.48 280.607 378.301 297.713 382.829L298.022 404.75C298.847 448.59 285.502 484.3 257.987 511.88C230.473 539.46 194.56 553.25 150.248 553.25C124.897 553.25 102.432 548.465 82.8527 538.894C63.2731 529.324 47.5578 516.202 35.707 499.531C23.8562 482.859 14.9423 464.026 8.9654 443.033C2.98847 422.039 0 399.398 0 375.111C1.44271 376.14 5.66778 379.228 12.6752 384.373C19.6827 389.519 26.0718 394.098 31.8426 398.112C37.6135 402.125 43.6935 405.882 50.0826 409.381C56.4717 412.88 61.2121 414.629 64.3036 414.629C72.7537 414.629 78.4215 410.821 81.3069 403.206C86.4594 389.622 92.3849 378.044 99.0832 368.473C105.781 358.903 112.943 351.081 120.569 345.01C128.195 338.938 137.263 334.05 147.775 330.345C158.286 326.64 168.9 324.016 179.617 322.472C190.334 320.928 203.216 319.848 218.261 319.23Z" fill="#1F8BEE"/>
</svg>
