<svg width="470" height="50" viewBox="0 0 470 50" fill="none" xmlns="http://www.w3.org/2000/svg">
<path d="M20 30H50V25H55V5H50V0H35H20H0V50H20V30ZM20 10H35V20H20V10Z" fill="#FF0000"/>
<path d="M59.9609 10H74.9609V40H59.9609V50H109.961V40H94.9609V10H109.961V0H59.9609V10Z" fill="#A812C0"/>
<path d="M114.941 50H129.941V45H134.941V40H139.941V35H144.941V40H149.941V45H154.941V50H169.941V35H164.941V30H159.941V20H164.941V15H169.941V0H154.941V5H149.941V10H144.941V15H139.941V10H134.941V5H129.941V0H114.941V15H119.941V20H124.941V30H119.941V35H114.941V50Z" fill="#2081E2"/>
<path d="M174.902 50H224.902V45H229.902V25H224.902V20H209.902H194.902V10H229.902V0H179.902V5H174.902V25H179.902V30H209.902V40H174.902V50Z" fill="#E8BB1C"/>
<path d="M239.863 50H289.863V40H254.863V30H269.863V20H254.863V10H289.863V0H239.863V5H234.863V45H239.863V50Z" fill="#15DDEA"/>
<path d="M294.824 50H349.824V40H314.824V0H294.824V50Z" fill="#2ED26C"/>
<path d="M354.785 50H409.785V40H374.785V0H354.785V50Z" fill="#F06F12"/>
<path d="M414.746 50H464.746V45H469.746V25H464.746V20H449.746H434.746V10H469.746V0H419.746V5H414.746V25H419.746V30H449.746V40H414.746V50Z" fill="#FF00F5"/>
</svg>
